<svg xmlns="http://www.w3.org/2000/svg" xmlns:xlink="http://www.w3.org/1999/xlink" width="826" zoomAndPan="magnify" viewBox="0 0 619.92 186.749996" height="249" preserveAspectRatio="xMidYMid meet" version="1.0"><defs><clipPath id="c2f2353bd5"><path d="M 144.507812 13.003906 L 162 13.003906 L 162 150.378906 L 144.507812 150.378906 Z M 144.507812 13.003906 " clip-rule="nonzero"/></clipPath><clipPath id="ea683c8ccf"><path d="M 161.820312 13.230469 L 161.820312 150.277344 L 155.019531 150.277344 L 144.742188 127.976562 L 144.742188 13.230469 Z M 161.820312 13.230469 " clip-rule="nonzero"/></clipPath><clipPath id="d6943eaff9"><path d="M 21.222656 7.132812 L 152.726562 7.132812 L 152.726562 150.378906 L 21.222656 150.378906 Z M 21.222656 7.132812 " clip-rule="nonzero"/></clipPath><clipPath id="ce485b1541"><path d="M 62.582031 100.304688 L 111.316406 100.304688 L 86.949219 44.859375 Z M 86.949219 7.429688 L 152.382812 150.277344 L 134.039062 150.277344 L 118.390625 115.933594 L 55.511719 115.933594 L 39.863281 150.289062 L 21.519531 150.289062 Z M 86.949219 7.429688 " clip-rule="nonzero"/></clipPath><clipPath id="a57a44e0ac"><path d="M 273.457031 48.714844 L 315 48.714844 L 315 162.855469 L 273.457031 162.855469 Z M 273.457031 48.714844 " clip-rule="nonzero"/></clipPath><clipPath id="edf1a50f0d"><path d="M 290.699219 105.777344 L 277.953125 162.691406 L 314.714844 86.003906 L 298.886719 88.570312 L 314.195312 49.394531 L 314.117188 48.882812 L 287.433594 53.207031 L 273.609375 109.414062 Z M 290.699219 105.777344 " clip-rule="nonzero"/></clipPath><clipPath id="88671bee96"><path d="M 311.507812 65.019531 L 370.691406 65.019531 L 370.691406 156.214844 L 311.507812 156.214844 Z M 311.507812 65.019531 " clip-rule="nonzero"/></clipPath><clipPath id="458da97162"><path d="M 363.96875 80.414062 L 350.695312 87.484375 C 349.726562 85.4375 348.289062 83.679688 346.414062 82.21875 C 344.535156 80.761719 342.339844 80.03125 339.800781 80.03125 C 337.496094 80.03125 335.4375 80.851562 333.621094 82.488281 C 331.800781 84.128906 330.894531 86.09375 330.894531 88.402344 C 330.894531 90.9375 332.101562 93.214844 334.507812 95.222656 C 336.933594 97.21875 340.691406 99.308594 345.785156 101.484375 L 350.695312 103.671875 C 357.359375 106.578125 362.28125 109.902344 365.488281 113.65625 C 368.703125 117.414062 370.3125 122.148438 370.3125 127.847656 C 370.3125 135.726562 367.464844 142.390625 361.761719 147.84375 C 356.070312 153.292969 349.179688 156.019531 341.058594 156.019531 C 334.507812 156.019531 328.515625 154.261719 323.0625 150.757812 C 317.613281 147.234375 313.796875 142.617188 311.621094 136.917969 L 325.601562 130.574219 C 327.308594 133.730469 329.335938 136.335938 331.691406 138.394531 C 334.050781 140.453125 337.164062 141.46875 341.058594 141.46875 C 344.566406 141.46875 347.589844 140.382812 350.128906 138.203125 C 352.675781 136.019531 353.953125 133.101562 353.953125 129.464844 C 353.953125 127.050781 353.3125 125.121094 352.035156 123.664062 C 350.765625 122.207031 348.261719 120.449219 344.503906 118.382812 L 331.960938 111.660156 C 326.507812 108.875 322.414062 105.910156 319.6875 102.753906 C 316.972656 99.605469 315.613281 95.421875 315.613281 90.210938 C 315.613281 83.546875 318.089844 77.765625 323.0625 72.851562 C 328.039062 67.9375 333.910156 65.484375 340.710938 65.484375 C 345.914062 65.484375 350.507812 66.820312 354.5 69.496094 C 358.507812 72.164062 361.664062 75.796875 363.96875 80.402344 " clip-rule="nonzero"/></clipPath><clipPath id="9c01acdff1"><path d="M 379.027344 35.523438 L 395.386719 35.523438 L 395.386719 68.058594 L 379.027344 68.058594 Z M 370.121094 68.058594 L 411.386719 68.058594 L 411.386719 83.308594 L 370.121094 83.308594 Z M 379.027344 83.308594 L 395.386719 83.308594 L 395.386719 153.113281 L 379.027344 153.113281 Z M 379.027344 83.308594 " clip-rule="nonzero"/></clipPath><clipPath id="a458242836"><path d="M 404 65.019531 L 485.4375 65.019531 L 485.4375 156.214844 L 404 156.214844 Z M 404 65.019531 " clip-rule="nonzero"/></clipPath><clipPath id="96d164d984"><path d="M 469 100.953125 C 468.03125 94.414062 465.511719 89.230469 461.449219 85.414062 C 457.382812 81.601562 452.03125 79.695312 445.371094 79.695312 C 439.199219 79.695312 433.894531 81.730469 429.472656 85.785156 C 425.046875 89.839844 422.339844 94.894531 421.382812 100.953125 Z M 485.355469 111.851562 L 485.355469 113.308594 L 420.464844 113.308594 C 420.714844 121.546875 423.28125 128.308594 428.183594 133.570312 C 433.097656 138.84375 439.070312 141.480469 446.097656 141.480469 C 452.390625 141.480469 457.425781 140.003906 461.179688 137.027344 C 464.933594 134.050781 468.390625 130.035156 471.546875 124.941406 L 485.355469 132.761719 C 481.363281 140.140625 475.878906 145.863281 468.898438 149.929688 C 461.9375 153.992188 454.269531 156.019531 445.910156 156.019531 C 433.675781 156.019531 423.648438 151.90625 415.828125 143.65625 C 408.019531 135.417969 404.117188 124.632812 404.117188 111.300781 C 404.117188 97.359375 407.808594 86.246094 415.199219 77.945312 C 422.589844 69.636719 432.707031 65.484375 445.558594 65.484375 C 457.921875 65.484375 467.640625 69.515625 474.730469 77.566406 C 481.820312 85.617188 485.355469 97.070312 485.355469 111.851562 " clip-rule="nonzero"/></clipPath><clipPath id="b4f12d175f"><path d="M 490.269531 65.019531 L 544.621094 65.019531 L 544.621094 153.195312 L 490.269531 153.195312 Z M 490.269531 65.019531 " clip-rule="nonzero"/></clipPath><clipPath id="619265522d"><path d="M 544.417969 69.675781 L 536.96875 84.597656 C 535.507812 83.257812 533.902344 82.339844 532.144531 81.871094 C 530.394531 81.390625 528.679688 81.140625 526.980469 81.140625 C 520.179688 81.140625 515.175781 83.566406 511.960938 88.402344 C 508.753906 93.246094 507.15625 100.574219 507.15625 110.390625 L 507.15625 153.105469 L 490.800781 153.105469 L 490.800781 68.058594 L 507.15625 68.058594 L 507.15625 81.851562 L 507.695312 81.851562 C 509.765625 76.777344 512.820312 72.78125 516.875 69.867188 C 520.929688 66.949219 525.640625 65.503906 530.976562 65.503906 C 533.152344 65.503906 535.417969 65.871094 537.777344 66.601562 C 540.152344 67.320312 542.359375 68.347656 544.417969 69.675781 " clip-rule="nonzero"/></clipPath><clipPath id="6892a18551"><path d="M 538.582031 65.019531 L 597.769531 65.019531 L 597.769531 156.214844 L 538.582031 156.214844 Z M 538.582031 65.019531 " clip-rule="nonzero"/></clipPath><clipPath id="2fef5fddfb"><path d="M 591.304688 80.414062 L 578.03125 87.484375 C 577.0625 85.4375 575.625 83.679688 573.75 82.21875 C 571.871094 80.761719 569.671875 80.03125 567.136719 80.03125 C 564.828125 80.03125 562.773438 80.851562 560.957031 82.488281 C 559.136719 84.128906 558.230469 86.09375 558.230469 88.402344 C 558.230469 90.9375 559.4375 93.214844 561.84375 95.222656 C 564.269531 97.21875 568.027344 99.308594 573.117188 101.484375 L 578.03125 103.671875 C 584.695312 106.578125 589.617188 109.902344 592.824219 113.65625 C 596.039062 117.414062 597.644531 122.148438 597.644531 127.847656 C 597.644531 135.726562 594.800781 142.390625 589.097656 147.84375 C 583.40625 153.292969 576.515625 156.019531 568.394531 156.019531 C 561.84375 156.019531 555.851562 154.261719 550.398438 150.757812 C 544.945312 147.234375 541.132812 142.617188 538.953125 136.917969 L 552.9375 130.574219 C 554.644531 133.730469 556.671875 136.335938 559.027344 138.394531 C 561.382812 140.453125 564.5 141.46875 568.394531 141.46875 C 571.902344 141.46875 574.925781 140.382812 577.464844 138.203125 C 580.007812 136.019531 581.289062 133.101562 581.289062 129.464844 C 581.289062 127.050781 580.648438 125.121094 579.371094 123.664062 C 578.101562 122.207031 575.59375 120.449219 571.839844 118.382812 L 559.296875 111.660156 C 553.84375 108.875 549.75 105.910156 547.023438 102.753906 C 544.308594 99.605469 542.949219 95.421875 542.949219 90.210938 C 542.949219 83.546875 545.425781 77.765625 550.398438 72.851562 C 555.371094 67.9375 561.246094 65.484375 568.046875 65.484375 C 573.25 65.484375 577.84375 66.820312 581.835938 69.496094 C 585.839844 72.164062 588.996094 75.796875 591.304688 80.402344 " clip-rule="nonzero"/></clipPath><clipPath id="c3b66597e8"><path d="M 216.085938 62.605469 L 275 62.605469 L 275 153.796875 L 216.085938 153.796875 Z M 216.085938 62.605469 " clip-rule="nonzero"/></clipPath><clipPath id="bdcf419582"><path d="M 268.597656 77.585938 L 255.316406 84.65625 C 254.347656 82.609375 252.90625 80.851562 251.03125 79.394531 C 249.152344 77.9375 246.957031 77.207031 244.417969 77.207031 C 242.113281 77.207031 240.054688 78.027344 238.238281 79.664062 C 236.421875 81.300781 235.511719 83.269531 235.511719 85.574219 C 235.511719 88.113281 236.71875 90.390625 239.125 92.394531 C 241.554688 94.394531 245.308594 96.480469 250.402344 98.65625 L 255.316406 100.84375 C 261.976562 103.75 266.898438 107.078125 270.105469 110.832031 C 273.320312 114.585938 274.929688 119.320312 274.929688 125.023438 C 274.929688 132.902344 272.082031 139.5625 266.378906 145.015625 C 260.6875 150.46875 253.796875 153.195312 245.679688 153.195312 C 239.125 153.195312 233.132812 151.4375 227.683594 147.933594 C 222.238281 144.40625 218.425781 139.792969 216.246094 134.089844 L 230.226562 127.75 C 231.9375 130.90625 233.964844 133.511719 236.320312 135.570312 C 238.675781 137.625 241.804688 138.644531 245.6875 138.644531 C 249.191406 138.644531 252.21875 137.554688 254.753906 135.378906 C 257.300781 133.191406 258.582031 130.277344 258.582031 126.640625 C 258.582031 124.222656 257.941406 122.296875 256.664062 120.839844 C 255.394531 119.378906 252.886719 117.621094 249.132812 115.554688 L 236.589844 108.835938 C 231.136719 106.046875 227.042969 103.082031 224.316406 99.925781 C 221.601562 96.78125 220.242188 92.605469 220.242188 87.382812 C 220.242188 80.722656 222.71875 74.941406 227.691406 70.035156 C 232.664062 65.132812 238.539062 62.667969 245.339844 62.667969 C 250.542969 62.667969 255.136719 64.003906 259.128906 66.679688 C 263.132812 69.347656 266.289062 72.984375 268.597656 77.585938 " clip-rule="nonzero"/></clipPath><clipPath id="9c8207427b"><path d="M 294 18 L 319.355469 18 L 319.355469 43.277344 L 294 43.277344 Z M 294 18 " clip-rule="nonzero"/></clipPath><clipPath id="395c04919a"><path d="M 319.058594 32.65625 L 318.410156 35.011719 C 318.121094 35.773438 317.75 36.5 317.3125 37.199219 L 315.8125 39.136719 C 315.253906 39.738281 314.636719 40.265625 313.964844 40.746094 L 311.839844 41.953125 C 311.089844 42.292969 310.320312 42.554688 309.511719 42.734375 L 307.085938 43.03125 C 306.265625 43.050781 305.457031 43.003906 304.648438 42.863281 L 302.292969 42.214844 C 301.523438 41.925781 300.792969 41.554688 300.105469 41.125 L 298.167969 39.628906 C 297.566406 39.058594 297.027344 38.449219 296.558594 37.78125 L 295.351562 35.652344 C 295.023438 34.902344 294.761719 34.132812 294.582031 33.335938 L 294.273438 30.910156 C 294.253906 30.089844 294.3125 29.269531 294.441406 28.472656 L 295.089844 26.105469 C 295.382812 25.347656 295.75 24.605469 296.191406 23.917969 L 297.6875 21.980469 C 298.257812 21.382812 298.867188 20.851562 299.535156 20.371094 L 301.664062 19.164062 C 302.410156 18.824219 303.179688 18.566406 303.988281 18.386719 L 306.417969 18.085938 C 307.234375 18.066406 308.042969 18.117188 308.851562 18.253906 L 311.210938 18.90625 C 311.980469 19.195312 312.707031 19.5625 313.398438 19.992188 L 315.335938 21.492188 C 315.933594 22.0625 316.460938 22.667969 316.941406 23.339844 L 318.152344 25.464844 C 318.488281 26.214844 318.75 26.984375 318.929688 27.78125 L 319.238281 30.210938 C 319.257812 31.027344 319.199219 31.847656 319.070312 32.65625 " clip-rule="nonzero"/></clipPath></defs><g clip-path="url(#c2f2353bd5)"><g clip-path="url(#ea683c8ccf)"><path fill="#000204" d="M 16.523438 2.4375 L 166.816406 2.4375 L 166.816406 155.078125 L 16.523438 155.078125 Z M 16.523438 2.4375 " fill-opacity="1" fill-rule="nonzero"/></g></g><g clip-path="url(#d6943eaff9)"><g clip-path="url(#ce485b1541)"><path fill="#000204" d="M 16.523438 2.4375 L 166.816406 2.4375 L 166.816406 155.078125 L 16.523438 155.078125 Z M 16.523438 2.4375 " fill-opacity="1" fill-rule="nonzero"/></g></g><g clip-path="url(#a57a44e0ac)"><g clip-path="url(#edf1a50f0d)"><path fill="#231f20" d="M 211.253906 13.082031 L 602.601562 13.082031 L 602.601562 167.6875 L 211.253906 167.6875 Z M 211.253906 13.082031 " fill-opacity="1" fill-rule="nonzero"/></g></g><g clip-path="url(#88671bee96)"><g clip-path="url(#458da97162)"><path fill="#000204" d="M 211.253906 13.082031 L 602.601562 13.082031 L 602.601562 167.6875 L 211.253906 167.6875 Z M 211.253906 13.082031 " fill-opacity="1" fill-rule="nonzero"/></g></g><g clip-path="url(#9c01acdff1)"><path fill="#000204" d="M 211.253906 13.082031 L 602.601562 13.082031 L 602.601562 167.6875 L 211.253906 167.6875 Z M 211.253906 13.082031 " fill-opacity="1" fill-rule="nonzero"/></g><g clip-path="url(#a458242836)"><g clip-path="url(#96d164d984)"><path fill="#000204" d="M 211.253906 13.082031 L 602.601562 13.082031 L 602.601562 167.6875 L 211.253906 167.6875 Z M 211.253906 13.082031 " fill-opacity="1" fill-rule="nonzero"/></g></g><g clip-path="url(#b4f12d175f)"><g clip-path="url(#619265522d)"><path fill="#000204" d="M 211.253906 13.082031 L 602.601562 13.082031 L 602.601562 167.6875 L 211.253906 167.6875 Z M 211.253906 13.082031 " fill-opacity="1" fill-rule="nonzero"/></g></g><g clip-path="url(#6892a18551)"><g clip-path="url(#2fef5fddfb)"><path fill="#000204" d="M 211.253906 13.082031 L 602.601562 13.082031 L 602.601562 167.6875 L 211.253906 167.6875 Z M 211.253906 13.082031 " fill-opacity="1" fill-rule="nonzero"/></g></g><g clip-path="url(#c3b66597e8)"><g clip-path="url(#bdcf419582)"><path fill="#000204" d="M 211.253906 13.082031 L 602.601562 13.082031 L 602.601562 167.6875 L 211.253906 167.6875 Z M 211.253906 13.082031 " fill-opacity="1" fill-rule="nonzero"/></g></g><g clip-path="url(#9c8207427b)"><g clip-path="url(#395c04919a)"><path fill="#231f20" d="M 211.253906 13.082031 L 602.601562 13.082031 L 602.601562 167.6875 L 211.253906 167.6875 Z M 211.253906 13.082031 " fill-opacity="1" fill-rule="nonzero"/></g></g></svg>